<svg version="1.0" xmlns="http://www.w3.org/2000/svg"
 width="428.000000pt" height="160.000000pt" viewBox="0 0 428.000000 160.000000"
 preserveAspectRatio="xMidYMid meet">

<g transform="translate(0.000000,160.000000) scale(0.100000,-0.100000)"
fill="#000000" stroke="none">
<path d="M2392 1463 c-2 -38 -12 -41 -55 -12 -32 20 -32 20 3 -10 l34 -31 -44
-1 -45 -2 40 -6 40 -6 -35 -29 c-37 -29 -25 -26 23 6 29 21 32 19 40 -32 3
-17 5 -13 6 13 l1 39 38 -22 37 -22 -27 25 -28 26 38 4 37 4 -40 2 -40 2 35
30 35 30 -35 -21 c-46 -26 -48 -26 -53 13 l-4 32 -1 -32z"/>
<path d="M1471 1398 c-1 -19 -26 -24 -36 -8 -3 6 -12 10 -18 10 -7 0 -4 -5 6
-11 9 -5 17 -14 17 -19 0 -5 -8 -11 -17 -13 -16 -4 -16 -5 1 -6 16 -1 17 -3 5
-18 -13 -15 -12 -15 8 -5 29 16 33 15 33 -5 0 -15 2 -15 9 -4 5 8 16 11 25 8
9 -4 16 -2 16 3 0 6 -6 10 -12 11 -7 1 -2 5 12 9 19 6 20 8 6 9 -12 1 -16 6
-12 17 4 12 1 14 -13 9 -14 -4 -21 0 -24 12 -4 17 -5 17 -6 1z"/>
<path d="M3380 1391 c0 -9 -8 -11 -21 -8 -16 4 -18 3 -9 -8 9 -11 5 -14 -17
-18 l-28 -4 29 -2 c25 -1 27 -3 15 -17 -12 -15 -11 -16 9 -10 15 5 22 3 22 -6
0 -10 2 -10 9 1 5 8 16 11 30 6 16 -5 20 -3 15 9 -4 10 2 16 18 19 20 4 19 4
-6 6 -24 1 -27 3 -16 16 8 9 9 15 2 15 -6 0 -14 -5 -18 -12 -5 -7 -11 -5 -21
7 -8 12 -13 14 -13 6z"/>
<path d="M2420 1224 c-126 -10 -482 -82 -610 -123 -14 -5 -79 -25 -145 -46
-66 -20 -129 -41 -140 -46 -11 -4 -74 -24 -140 -44 -109 -33 -162 -51 -265
-90 -67 -25 -146 -54 -275 -100 -202 -73 -490 -181 -570 -215 -93 -40 -194
-91 -215 -108 -24 -22 -25 -22 -6 -37 30 -23 99 -18 216 14 97 27 227 70 275
91 25 11 308 113 470 170 413 143 872 287 1045 328 76 18 93 22 150 38 107 30
240 44 305 34 61 -10 153 -34 190 -49 11 -5 36 -14 55 -21 19 -7 64 -26 100
-42 36 -17 85 -38 110 -48 25 -10 73 -32 106 -49 34 -17 64 -31 67 -31 2 0 48
-20 100 -45 53 -25 98 -45 101 -45 3 0 39 -15 78 -33 40 -19 91 -40 113 -48
22 -7 45 -16 50 -20 22 -15 264 -88 328 -99 44 -8 103 -10 163 -5 106 8 107
12 4 54 -30 13 -68 29 -85 36 -16 7 -124 51 -240 98 -115 47 -287 123 -381
170 l-171 85 5 56 c8 104 -12 126 -116 126 -64 0 -102 -19 -102 -51 0 -25 -6
-24 -87 12 -72 33 -96 41 -183 65 -55 15 -217 25 -300 18z"/>
<path d="M516 1190 c53 -65 53 -62 -7 -56 l-54 5 48 -11 c26 -6 47 -14 47 -18
0 -4 -18 -15 -40 -25 -50 -23 -46 -32 5 -11 58 24 64 22 54 -21 -11 -51 -3
-54 12 -4 7 23 15 41 18 41 3 0 21 -15 40 -32 l35 -33 -28 39 -29 38 44 -5 44
-6 -38 12 c-40 13 -38 25 7 41 10 3 17 9 14 11 -3 3 -22 -2 -43 -11 l-38 -15
6 43 6 43 -16 -35 c-8 -19 -17 -37 -19 -39 -2 -3 -23 13 -47 35 -23 21 -33 28
-21 14z"/>
<path d="M3901 1023 c-1 -27 -12 -29 -49 -7 l-27 16 23 -20 c28 -26 28 -30 -5
-35 l-28 -4 29 -2 c29 -1 29 -1 10 -23 l-19 -22 27 17 c35 22 38 22 39 -5 l1
-23 6 22 7 23 35 -20 35 -21 -28 26 -28 25 33 1 33 2 -35 6 -35 6 35 29 35 28
-36 -21 c-45 -26 -47 -26 -52 2 l-4 22 -2 -22z"/>
<path d="M2588 798 c-9 -7 -21 -30 -28 -50 -9 -31 -16 -38 -38 -38 -44 0 -99
-46 -116 -97 -11 -32 -13 -51 -5 -64 13 -25 62 -25 105 1 l32 21 7 -21 c7 -22
43 -27 76 -10 14 8 17 15 11 28 -23 44 -17 149 13 225 6 13 2 17 -17 17 -13 0
-31 -6 -40 -12z m-62 -165 c-3 -7 0 -13 7 -13 16 -1 -23 -30 -40 -30 -17 0
-16 23 3 68 16 37 16 37 25 13 5 -14 7 -31 5 -38z"/>
<path d="M1560 786 c-24 -9 -36 -20 -38 -35 -3 -21 -1 -22 28 -16 28 6 30 5
22 -12 -14 -27 -49 -124 -56 -154 -7 -34 5 -39 92 -39 101 1 174 41 201 113
24 64 2 128 -50 146 -42 14 -155 13 -199 -3z m166 -92 c9 -47 -7 -85 -46 -111
-41 -28 -76 -31 -65 -5 4 9 14 40 21 67 26 95 33 105 60 93 15 -7 26 -23 30
-44z"/>
<path d="M1866 687 c-19 -28 -40 -123 -32 -142 7 -19 50 -19 65 -1 6 8 16 33
20 57 5 24 9 36 10 26 2 -28 25 -14 35 21 13 47 3 62 -43 62 -31 0 -44 -5 -55
-23z"/>
<path d="M2047 690 c-28 -22 -67 -88 -67 -113 0 -47 81 -61 144 -24 55 30 48
53 -9 32 -12 -5 -9 1 10 16 41 32 46 40 43 74 -3 28 -6 30 -49 33 -34 2 -52
-2 -72 -18z m47 -62 c-23 -44 -29 -22 -7 28 11 26 18 33 20 22 2 -9 -4 -32
-13 -50z"/>
<path d="M2238 687 c-51 -43 -58 -89 -15 -103 20 -6 20 -7 -6 -21 -46 -23 -29
-73 24 -73 32 0 91 24 113 45 22 23 21 66 -3 72 -17 4 -17 6 5 28 44 44 25 75
-45 75 -33 0 -54 -6 -73 -23z m74 -43 c-5 -27 -20 -32 -28 -10 -8 20 16 63 26
47 4 -7 5 -23 2 -37z m-36 -110 c-25 -18 -30 -12 -22 22 7 26 8 26 24 10 16
-16 16 -18 -2 -32z"/>
<path d="M2708 686 c-9 -12 -24 -48 -33 -80 -13 -45 -14 -60 -5 -71 20 -24 38
-18 83 26 41 40 42 40 45 15 4 -33 25 -48 59 -44 27 3 28 4 28 68 0 36 -1 71
-3 78 -7 21 -55 13 -84 -15 l-28 -27 0 37 c0 32 -3 37 -22 37 -13 0 -31 -11
-40 -24z"/>
<path d="M2961 684 c-35 -29 -61 -73 -61 -102 0 -52 77 -67 144 -29 66 37 60
59 -9 31 -11 -4 -3 7 18 26 31 27 37 39 35 64 -3 29 -6 31 -49 34 -38 2 -52
-2 -78 -24z m63 -31 c-7 -30 -30 -60 -39 -51 -8 7 26 78 37 78 5 0 5 -12 2
-27z"/>
<path d="M3130 669 c-11 -21 -23 -59 -27 -84 -6 -49 6 -62 51 -51 20 5 24 14
32 68 5 41 9 53 12 36 2 -16 7 -28 12 -28 14 0 30 36 30 69 0 28 -2 29 -45 29
-43 0 -47 -2 -65 -39z"/>
<path d="M3563 538 c-34 -40 -46 -230 -23 -329 20 -81 79 -119 100 -63 6 14
10 89 10 168 0 127 -2 146 -22 186 -24 47 -47 60 -65 38z"/>
<path d="M543 504 c-39 -16 -103 -188 -103 -276 0 -71 12 -98 44 -98 29 0 37
10 64 83 49 132 65 253 36 281 -16 17 -21 18 -41 10z"/>
<path d="M1149 411 c-19 -16 -22 -22 -12 -32 19 -19 68 1 68 26 0 27 -27 30
-56 6z"/>
<path d="M785 394 c-13 -14 -27 -39 -30 -54 -4 -16 -16 -41 -28 -57 -15 -19
-22 -43 -24 -80 -2 -49 0 -53 23 -59 31 -8 60 16 69 57 6 26 11 29 45 29 l38
0 -5 -39 c-3 -21 -1 -41 5 -45 17 -10 71 15 78 37 4 12 23 37 43 55 32 30 34
35 20 46 -15 10 -15 15 -3 36 21 39 18 87 -6 93 -29 7 -66 -26 -86 -78 -16
-43 -19 -45 -55 -45 l-39 0 20 50 19 49 -22 16 c-29 20 -34 19 -62 -11z"/>
<path d="M1220 400 c-13 -24 -6 -40 19 -40 22 0 41 19 41 42 0 26 -46 24 -60
-2z"/>
<path d="M2850 388 c-41 -42 -80 -123 -80 -169 0 -38 18 -62 58 -74 31 -9 103
27 125 64 22 37 23 109 2 118 -14 5 -14 7 0 23 9 10 15 29 13 42 -2 19 -10 23
-44 26 -35 3 -45 -2 -74 -30z m55 -24 c-19 -46 -19 -48 2 -40 16 6 16 6 1 -11
-9 -10 -21 -30 -27 -45 -8 -22 -7 -29 5 -36 13 -7 14 -13 4 -31 -9 -18 -14
-20 -26 -10 -26 22 -9 124 32 186 22 34 26 28 9 -13z"/>
<path d="M1374 383 c-13 -16 -36 -40 -51 -55 -21 -22 -24 -30 -14 -41 8 -11 9
-22 1 -41 -14 -38 -13 -62 6 -80 20 -21 58 -20 90 1 26 17 26 17 4 25 -30 11
-25 78 8 93 24 10 30 41 10 47 -10 4 -10 10 0 32 23 51 -13 64 -54 19z"/>
<path d="M1536 384 c-13 -15 -32 -36 -42 -48 -11 -11 -19 -37 -20 -56 -1 -19
-4 -49 -8 -66 -14 -56 49 -85 103 -47 l24 16 -21 8 c-33 13 -31 75 3 91 26 12
34 43 13 50 -10 4 -10 10 0 32 23 50 -13 64 -52 20z"/>
<path d="M1088 308 c-39 -70 -50 -151 -22 -162 9 -4 39 7 70 25 52 29 54 30
54 9 0 -24 31 -39 67 -32 22 4 23 9 23 78 0 64 -2 74 -18 74 -20 0 -54 -21
-94 -58 -32 -30 -34 -26 -12 22 22 44 13 66 -25 66 -21 0 -34 -7 -43 -22z"/>
<path d="M1680 304 c-53 -45 -76 -114 -48 -142 30 -30 168 7 168 45 0 15 -26
18 -35 3 -3 -5 -11 -10 -17 -10 -6 0 1 9 16 21 35 28 48 54 40 84 -5 22 -12
25 -49 25 -32 0 -52 -7 -75 -26z m59 -36 c-9 -34 -39 -72 -39 -50 0 17 32 82
41 82 4 0 3 -14 -2 -32z"/>
<path d="M1861 299 c-24 -38 -45 -123 -37 -144 10 -26 40 -16 86 27 l45 41 3
-31 c4 -39 34 -59 66 -44 19 9 21 15 16 83 -6 85 -18 94 -74 59 l-35 -21 -3
28 c-5 42 -42 44 -67 2z"/>
<path d="M2080 311 c-16 -31 -13 -33 35 -29 25 2 45 1 45 -2 0 -3 -22 -28 -50
-55 -27 -27 -50 -55 -50 -62 0 -17 76 -36 117 -28 35 6 76 42 70 60 -2 5 -21
8 -43 6 -31 -2 -36 0 -28 10 6 8 25 33 43 56 18 24 30 47 26 53 -3 5 -40 10
-80 10 -63 0 -76 -3 -85 -19z"/>
<path d="M2338 301 c-70 -45 -97 -110 -61 -146 22 -22 77 -14 110 17 l24 22 6
-22 c6 -26 43 -38 70 -23 17 9 19 17 12 81 -5 40 -13 78 -20 86 -20 25 -90 17
-141 -15z m68 -36 c-4 -38 -21 -65 -42 -65 -21 0 -17 44 7 74 28 35 39 33 35
-9z"/>
<path d="M2568 313 c-24 -28 -35 -54 -42 -104 -10 -70 8 -80 78 -41 l54 31 6
-23 c6 -24 34 -35 69 -28 14 3 17 15 17 78 0 66 -2 74 -19 74 -10 0 -41 -18
-70 -41 -28 -22 -51 -38 -51 -34 0 3 8 22 19 43 10 20 16 43 14 50 -7 18 -58
15 -75 -5z"/>
<path d="M3050 304 c-53 -45 -76 -114 -48 -142 30 -30 168 6 168 43 0 20 -15
19 -48 -2 -17 -11 -11 -3 16 23 62 60 54 104 -19 104 -26 0 -47 -8 -69 -26z
m44 -72 c-24 -37 -29 -11 -7 35 16 34 18 35 21 15 2 -13 -4 -35 -14 -50z"/>
<path d="M3231 316 c-18 -21 -41 -96 -41 -131 0 -40 23 -52 56 -30 19 12 24
24 24 60 0 24 5 47 10 50 6 3 10 -3 10 -14 0 -30 19 -26 31 6 19 49 9 68 -37
70 -25 2 -46 -3 -53 -11z"/>
</g>
</svg>
